<svg width="46" height="46" viewBox="0 0 46 46" fill="none" xmlns="http://www.w3.org/2000/svg">
<path d="M31.625 18.0168L14.375 8.06934" stroke="white" stroke-width="3.5" stroke-linecap="round" stroke-linejoin="round"/>
<path d="M40.25 30.6668V15.3335C40.2493 14.6612 40.0719 14.001 39.7354 13.419C39.399 12.837 38.9155 12.3537 38.3333 12.0176L24.9167 4.35097C24.3339 4.01453 23.6729 3.8374 23 3.8374C22.3271 3.8374 21.6661 4.01453 21.0833 4.35097L7.66667 12.0176C7.0845 12.3537 6.60096 12.837 6.26455 13.419C5.92814 14.001 5.75069 14.6612 5.75 15.3335V30.6668C5.75069 31.339 5.92814 31.9993 6.26455 32.5812C6.60096 33.1632 7.0845 33.6465 7.66667 33.9826L21.0833 41.6493C21.6661 41.9857 22.3271 42.1629 23 42.1629C23.6729 42.1629 24.3339 41.9857 24.9167 41.6493L38.3333 33.9826C38.9155 33.6465 39.399 33.1632 39.7354 32.5812C40.0719 31.9993 40.2493 31.339 40.25 30.6668Z" stroke="white" stroke-width="3.5" stroke-linecap="round" stroke-linejoin="round"/>
<path d="M6.26752 13.3398L23 23.019L39.7325 13.3398" stroke="white" stroke-width="3.5" stroke-linecap="round" stroke-linejoin="round"/>
<path d="M23 42.32V23" stroke="white" stroke-width="3.5" stroke-linecap="round" stroke-linejoin="round"/>
</svg>
